<?xml version="1.0" standalone="no"?>
<!DOCTYPE svg PUBLIC "-//W3C//DTD SVG 20010904//EN"
 "http://www.w3.org/TR/2001/REC-SVG-20010904/DTD/svg10.dtd">
<svg version="1.0" xmlns="http://www.w3.org/2000/svg"
 width="64.000000pt" height="64.000000pt" viewBox="0 0 64.000000 64.000000"
 preserveAspectRatio="xMidYMid meet">

<g transform="translate(0.000000,64.000000) scale(0.100000,-0.100000)"
fill="#000000" stroke="none">
<path d="M80 522 c0 -5 10 -18 23 -30 17 -16 36 -22 70 -22 26 0 47 5 47 10 0
6 -20 10 -43 10 -31 0 -49 6 -62 20 -19 21 -35 26 -35 12z"/>
<path d="M281 511 c-8 -5 -9 -11 -3 -15 14 -8 43 4 36 15 -7 11 -15 11 -33 0z"/>
<path d="M366 511 c-7 -11 22 -23 36 -15 6 4 5 10 -3 15 -18 11 -26 11 -33 0z"/>
<path d="M330 480 c0 -11 5 -20 10 -20 6 0 10 9 10 20 0 11 -4 20 -10 20 -5 0
-10 -9 -10 -20z"/>
<path d="M276 461 c-7 -11 22 -23 36 -15 6 4 5 10 -3 15 -18 11 -26 11 -33 0z"/>
<path d="M371 461 c-8 -5 -9 -11 -3 -15 14 -8 43 4 36 15 -7 11 -15 11 -33 0z"/>
<path d="M163 443 c-103 -5 -110 -23 -9 -23 41 0 81 -3 90 -6 12 -4 16 0 16
15 0 12 -3 20 -7 19 -5 -1 -45 -4 -90 -5z"/>
<path d="M420 430 c0 -11 5 -20 10 -20 6 0 10 9 10 20 0 11 -4 20 -10 20 -5 0
-10 -9 -10 -20z"/>
<path d="M281 411 c-8 -5 -9 -11 -3 -15 14 -8 43 4 36 15 -7 11 -15 11 -33 0z"/>
<path d="M366 411 c-7 -11 22 -23 36 -15 6 4 5 10 -3 15 -18 11 -26 11 -33 0z"/>
<path d="M330 380 c0 -11 5 -20 10 -20 6 0 10 9 10 20 0 11 -4 20 -10 20 -5 0
-10 -9 -10 -20z"/>
<path d="M100 365 c-29 -31 -18 -46 13 -17 16 15 36 22 65 22 23 0 42 5 42 10
0 6 -22 10 -48 10 -39 0 -53 -5 -72 -25z"/>
<path d="M276 361 c-7 -11 22 -23 36 -15 6 4 5 10 -3 15 -18 11 -26 11 -33 0z"/>
<path d="M371 361 c-8 -5 -9 -11 -3 -15 14 -8 43 4 36 15 -7 11 -15 11 -33 0z"/>
<path d="M440 222 c0 -5 8 -16 18 -25 20 -18 72 -23 72 -7 0 6 -14 10 -30 10
-18 0 -33 6 -36 15 -6 16 -24 21 -24 7z"/>
</g>
</svg>
